<?xml version="1.0" standalone="no"?>
<!DOCTYPE svg PUBLIC "-//W3C//DTD SVG 20010904//EN"
 "http://www.w3.org/TR/2001/REC-SVG-20010904/DTD/svg10.dtd">
<svg version="1.0" xmlns="http://www.w3.org/2000/svg"
 width="300.000000pt" height="300.000000pt" viewBox="0 0 300.000000 300.000000"
 preserveAspectRatio="xMidYMid meet">
<metadata>
Created by potrace 1.15, written by Peter Selinger 2001-2017
</metadata>
<g transform="translate(0.000000,300.000000) scale(0.100000,-0.100000)"
fill="#000000" stroke="none">
<path d="M1370 2740 c-355 -37 -698 -243 -895 -536 -128 -190 -194 -372 -215
-595 -11 -112 -2 -263 20 -365 108 -496 496 -873 998 -970 113 -22 346 -22
452 0 385 82 692 309 872 646 49 92 98 231 124 350 22 106 22 339 0 452 -88
456 -400 812 -843 964 -133 46 -363 70 -513 54z m342 -196 c351 -73 638 -310
773 -638 54 -130 77 -248 78 -391 3 -385 -169 -703 -495 -917 -333 -219 -805
-216 -1148 7 -94 61 -252 218 -312 310 -119 183 -190 446 -173 640 26 289 115
491 304 688 182 190 393 288 691 321 56 6 209 -4 282 -20z"/>
<path d="M1215 1706 l-129 -104 -27 42 c-61 94 -100 110 -286 114 l-153 4 0
-251 0 -251 134 0 c183 0 256 28 307 119 l22 39 133 -105 134 -104 33 22 c17
13 64 48 102 78 105 84 155 121 160 121 3 0 5 -38 5 -85 l0 -85 175 0 175 0 0
70 0 70 -90 0 -90 0 0 180 0 180 -85 0 -85 0 0 -87 c0 -87 0 -88 -33 -114
-229 -182 -216 -173 -237 -154 -25 23 -25 41 -1 55 11 5 25 16 33 22 7 7 48
39 91 72 42 32 79 62 82 66 3 4 -16 24 -42 44 l-46 36 -51 -43 c-28 -23 -82
-67 -119 -96 -63 -50 -70 -53 -93 -41 -34 19 -30 32 19 67 23 17 51 39 62 50
11 10 44 36 73 58 28 21 52 42 52 46 0 8 -81 69 -89 68 -4 0 -64 -47 -136
-103z m-304 -115 c24 -25 29 -38 29 -80 0 -70 -28 -102 -97 -108 l-50 -5 -6
77 c-4 43 -7 93 -7 112 l0 33 51 0 c43 0 55 -5 80 -29z"/>
<path d="M2050 1510 l0 -249 175 -3 175 -3 0 73 0 72 -89 0 -89 0 4 180 4 180
-90 0 -90 0 0 -250z"/>
</g>
</svg>
