<?xml version="1.0" standalone="no"?>
<!DOCTYPE svg PUBLIC "-//W3C//DTD SVG 20010904//EN"
 "http://www.w3.org/TR/2001/REC-SVG-20010904/DTD/svg10.dtd">
<svg version="1.0" xmlns="http://www.w3.org/2000/svg"
 width="2400.000000pt" height="2400.000000pt" viewBox="0 0 2400.000000 2400.000000"
 preserveAspectRatio="xMidYMid meet">
<metadata>
Created by potrace 1.15, written by Peter Selinger 2001-2017
</metadata>
<g transform="translate(0.000000,2400.000000) scale(0.100000,-0.100000)"
fill="#000000" stroke="none">
<path d="M17980 13104 c-312 -27 -521 -61 -755 -121 -962 -246 -1700 -865
-2048 -1718 -88 -215 -158 -487 -194 -751 -23 -178 -23 -620 1 -827 120 -1035
599 -1768 1551 -2374 341 -218 695 -394 1415 -704 611 -263 833 -364 1035
-468 437 -226 657 -416 785 -676 79 -162 94 -235 95 -460 0 -169 -3 -199 -23
-270 -127 -442 -539 -741 -1148 -832 -181 -27 -560 -24 -752 6 -507 78 -894
269 -1256 621 -210 205 -385 428 -561 718 -2 3 -1817 -1047 -1829 -1058 -19
-19 182 -360 340 -577 249 -341 593 -678 936 -919 795 -557 1830 -840 2958
-810 558 14 1006 88 1465 241 1040 345 1750 1044 2014 1982 79 283 110 499
118 833 20 867 -192 1553 -654 2115 -100 122 -322 343 -453 451 -384 318 -920
631 -1607 940 -78 35 -335 147 -570 248 -235 101 -500 218 -589 259 -799 370
-1064 673 -1064 1216 0 270 78 475 247 652 210 219 473 319 842 319 372 0 645
-88 900 -289 160 -125 332 -331 466 -557 37 -63 69 -114 71 -114 3 0 1746
1119 1752 1125 13 13 -247 405 -385 579 -112 140 -390 422 -513 520 -492 389
-1041 601 -1765 682 -133 15 -717 27 -825 18z"/>
<path d="M10797 8978 c-2 -3797 -3 -4008 -20 -4107 -101 -580 -342 -855 -832
-947 -143 -27 -512 -27 -635 0 -242 53 -436 161 -621 345 -145 146 -297 358
-459 644 -40 70 -77 130 -82 133 -6 4 -1811 -1078 -1836 -1101 -5 -4 80 -170
144 -281 82 -144 208 -333 310 -464 106 -138 410 -445 549 -556 481 -382 1063
-624 1725 -718 223 -32 371 -41 675 -40 334 1 507 14 780 60 1395 232 2265
1103 2500 2499 64 384 59 27 62 4488 l3 4047 -1130 0 -1130 0 -3 -4002z"/>
</g>
</svg>
