<?xml version="1.0" standalone="no"?>
<!DOCTYPE svg PUBLIC "-//W3C//DTD SVG 20010904//EN"
 "http://www.w3.org/TR/2001/REC-SVG-20010904/DTD/svg10.dtd">
<svg version="1.0" xmlns="http://www.w3.org/2000/svg"
 width="300.000000pt" height="300.000000pt" viewBox="0 0 300.000000 300.000000"
 preserveAspectRatio="xMidYMid meet">
<metadata>
Created by potrace 1.15, written by Peter Selinger 2001-2017
</metadata>
<g transform="translate(0.000000,300.000000) scale(0.100000,-0.100000)"
fill="#000000" stroke="none">
<path d="M981 2348 c-1 -4 15 -34 35 -67 20 -33 33 -65 29 -71 -4 -6 -1 -9 6
-8 6 2 14 -3 17 -11 3 -8 0 -11 -7 -7 -7 5 -9 1 -4 -9 4 -12 8 -13 13 -5 5 8
9 6 14 -6 4 -10 1 -21 -6 -25 -8 -5 -23 11 -46 52 -18 32 -35 59 -38 59 -5 0
14 -35 149 -275 44 -77 90 -160 104 -185 14 -25 34 -60 46 -78 21 -36 16 -48
-23 -55 l-25 -4 26 -2 c35 -1 57 24 41 47 -7 10 -20 32 -29 50 -15 28 -15 34
-3 42 19 12 31 -7 24 -40 -3 -20 -3 -21 4 -6 11 24 25 6 16 -21 -4 -12 -3 -14
3 -5 7 9 12 6 21 -13 11 -24 25 -30 66 -25 11 1 15 -3 12 -9 -5 -7 4 -9 26 -6
l33 5 -32 -10 c-18 -6 -35 -15 -38 -20 -8 -13 -6 -13 78 9 155 41 473 124 492
128 16 4 30 -9 60 -54 22 -32 42 -60 45 -63 14 -12 120 -163 120 -170 0 -4
-11 -10 -24 -14 -45 -11 -557 -189 -553 -192 1 -2 38 8 82 22 43 14 84 23 92
20 7 -3 13 -1 13 4 0 6 9 5 20 -2 29 -18 25 -24 -22 -41 -24 -9 -72 -27 -108
-40 -97 -36 -114 -41 -106 -28 5 7 1 9 -8 5 -9 -3 -16 -1 -16 5 0 6 -5 11 -12
11 -7 0 -3 -10 9 -22 l22 -21 163 57 c376 131 528 189 528 202 0 11 -154 223
-216 297 -13 16 -24 32 -24 35 0 4 41 18 90 31 50 13 88 26 86 29 -3 2 -33 -3
-66 -12 -33 -10 -71 -14 -83 -11 -18 5 -19 4 -7 -5 12 -8 9 -9 -11 -5 -19 5
-28 2 -32 -9 -4 -9 -3 -16 2 -16 5 0 11 -10 14 -22 6 -22 6 -22 -13 2 -27 36
-11 57 62 77 33 9 56 19 50 21 -7 2 -37 -4 -69 -13 l-57 -17 -31 35 c-16 19
-57 72 -90 117 -75 102 -105 129 -41 37 69 -98 50 -94 -22 5 -42 57 -57 85
-49 90 8 5 6 8 -5 8 -21 0 -23 -16 -5 -35 6 -8 22 -29 35 -47 12 -18 52 -73
87 -121 36 -48 65 -92 65 -98 0 -5 -9 -9 -19 -9 -20 0 -453 -103 -507 -120
-53 -17 -61 -13 -105 65 -23 41 -47 71 -52 68 -6 -3 -7 -1 -3 5 4 7 -8 38 -27
70 -19 31 -82 138 -140 237 -119 202 -126 213 -126 203z"/>
<path d="M790 645 c0 -188 1 -195 20 -195 19 0 20 7 20 195 0 188 -1 195 -20
195 -19 0 -20 -7 -20 -195z"/>
<path d="M2260 645 c0 -188 1 -195 20 -195 19 0 20 7 20 195 0 188 -1 195 -20
195 -19 0 -20 -7 -20 -195z"/>
<path d="M964 731 c-38 -16 -72 -81 -43 -81 6 0 24 14 39 30 30 32 52 36 95
20 22 -8 26 -15 23 -42 -3 -31 -5 -32 -70 -43 -98 -16 -136 -61 -104 -124 25
-48 115 -63 147 -25 16 19 25 18 49 -6 17 -17 24 -19 42 -9 l22 12 -22 15
c-20 13 -22 22 -22 117 0 89 -3 104 -20 120 -23 20 -104 30 -136 16z"/>
<path d="M1444 730 c-37 -15 -72 -80 -43 -80 6 0 24 14 39 30 29 32 52 36 94
20 20 -7 26 -17 26 -39 0 -32 -5 -35 -80 -46 -56 -9 -88 -28 -101 -62 -12 -32
4 -79 33 -94 30 -16 92 -13 121 6 24 16 27 15 47 -5 17 -17 24 -18 41 -9 l21
11 -21 19 c-19 17 -21 31 -21 117 0 53 -4 102 -8 109 -18 29 -102 42 -148 23z"/>
<path d="M2024 730 c-32 -13 -72 -67 -80 -105 -20 -107 53 -192 149 -174 59
10 128 89 79 89 -10 0 -28 -13 -40 -30 -31 -41 -90 -43 -121 -4 -12 15 -21 37
-21 50 0 24 2 24 100 24 l100 0 0 35 c0 89 -85 148 -166 115z"/>
<path d="M1660 727 c0 -1 22 -63 49 -137 43 -118 52 -135 72 -138 21 -2 27 5
51 70 14 40 38 103 52 141 l26 67 -24 0 c-21 0 -27 -10 -57 -103 -19 -57 -38
-105 -44 -106 -5 -1 -25 45 -45 103 -30 94 -37 106 -57 106 -13 0 -23 -1 -23
-3z"/>
</g>
</svg>
