<?xml version="1.0" standalone="no"?>
<!DOCTYPE svg PUBLIC "-//W3C//DTD SVG 20010904//EN"
 "http://www.w3.org/TR/2001/REC-SVG-20010904/DTD/svg10.dtd">
<svg version="1.0" xmlns="http://www.w3.org/2000/svg"
 width="260.000000pt" height="280.000000pt" viewBox="0 0 260.000000 280.000000"
 preserveAspectRatio="xMidYMid meet">
<metadata>
Created by potrace 1.15, written by Peter Selinger 2001-2017
</metadata>
<g transform="translate(0.000000,280.000000) scale(0.100000,-0.100000)"
fill="#000000" stroke="none">
<path d="M1441 2536 c-39 -10 -73 -11 -122 -5 -76 9 -161 -1 -210 -26 -30 -16
-35 -16 -93 1 -45 14 -95 19 -186 19 -117 0 -129 -2 -182 -28 -144 -71 -204
-236 -164 -452 39 -207 114 -442 176 -549 70 -121 142 -157 217 -109 19 12 25
12 45 -1 49 -31 184 -44 238 -22 14 6 17 -14 27 -132 11 -147 21 -178 70 -224
56 -53 135 -62 246 -28 72 22 126 71 146 131 13 40 41 220 41 265 l0 31 84 5
c133 9 210 56 237 148 11 35 10 43 -6 60 -16 18 -26 19 -106 13 -49 -3 -89 -4
-89 -1 0 3 20 43 44 89 60 114 111 255 135 376 23 113 26 179 10 237 -16 57
-94 130 -186 174 -74 35 -82 36 -198 39 -77 2 -139 -2 -174 -11z m315 -58 c69
-22 148 -78 181 -126 32 -48 38 -121 19 -231 -26 -150 -95 -331 -177 -464 -16
-27 -27 -52 -24 -56 8 -8 122 -6 156 2 37 9 64 -13 55 -46 -14 -56 -131 -107
-243 -107 l-63 0 0 -30 c0 -56 -40 -281 -55 -310 -24 -46 -66 -79 -119 -95
-105 -32 -189 -7 -226 66 -23 44 -40 162 -40 277 0 39 -1 72 -3 72 -1 0 -20
-9 -42 -20 -74 -38 -214 -20 -230 30 -10 31 17 55 80 70 30 7 64 23 76 36 l21
22 -38 11 c-22 6 -44 11 -49 11 -6 0 -40 -34 -75 -76 -77 -90 -95 -104 -135
-104 -89 0 -174 138 -245 399 -84 310 -78 493 18 594 81 85 251 106 431 52 52
-16 55 -16 105 7 44 20 68 23 181 24 72 1 155 7 185 12 72 14 179 5 256 -20z"/>
<path d="M1496 2451 c-16 -6 -15 -9 15 -21 58 -24 164 -138 202 -217 l34 -71
-2 -213 c-1 -151 -5 -221 -14 -237 -7 -13 -11 -26 -8 -28 10 -10 108 198 142
300 40 117 62 252 51 308 -13 71 -122 153 -234 177 -59 12 -157 14 -186 2z"/>
<path d="M738 2426 c-98 -26 -151 -93 -168 -213 -25 -178 101 -625 206 -730
41 -40 64 -31 143 58 l71 80 -27 35 c-44 58 -50 108 -42 319 8 215 23 285 84
376 20 28 34 53 33 55 -2 1 -38 9 -80 18 -91 19 -155 19 -220 2z"/>
<path d="M1155 2417 c-87 -41 -145 -125 -171 -246 -7 -36 -14 -69 -14 -73 0
-3 23 2 50 13 89 34 164 19 194 -40 23 -43 39 -157 32 -222 -3 -32 -21 -98
-40 -146 l-34 -88 23 -3 c12 -2 33 -14 46 -28 23 -25 24 -33 30 -227 6 -215
13 -250 63 -289 31 -26 111 -23 166 5 65 32 77 66 101 264 28 235 27 228 55
256 l26 26 -20 28 c-36 51 -122 227 -138 282 -38 129 16 211 139 211 15 0 27
3 27 6 0 3 -14 33 -31 65 -41 77 -122 152 -206 192 -57 26 -82 32 -158 35 -78
3 -96 0 -140 -21z"/>
<path d="M1605 2080 c-71 -28 -57 -124 48 -318 16 -29 32 -50 36 -47 3 4 6 90
6 191 l0 184 -35 -1 c-19 0 -44 -4 -55 -9z"/>
<path d="M1018 2058 l-48 -21 -2 -106 c-4 -165 -1 -188 22 -226 26 -43 71 -76
106 -78 25 -2 30 5 61 83 41 103 49 173 33 268 -9 53 -17 76 -33 87 -30 21
-83 18 -139 -7z"/>
<path d="M1595 735 c-38 -21 -45 -32 -45 -77 0 -47 31 -73 108 -88 31 -7 72
-18 90 -26 27 -11 32 -18 32 -48 0 -58 -43 -84 -123 -73 -43 6 -87 43 -87 73
0 8 -7 14 -15 14 -36 0 -5 -73 40 -95 42 -19 137 -20 175 0 50 26 61 107 18
142 -7 7 -53 22 -102 34 -95 24 -115 42 -102 92 17 68 186 54 186 -15 0 -12 7
-18 21 -18 16 0 19 4 14 23 -4 12 -17 33 -30 46 -30 31 -135 40 -180 16z"/>
<path d="M1925 736 c-62 -28 -95 -85 -95 -163 0 -106 68 -173 175 -173 31 0
65 4 75 10 13 7 24 4 44 -11 34 -27 55 -15 26 16 l-21 22 23 39 c32 55 32 144
-1 198 -41 66 -150 96 -226 62z m163 -35 c38 -27 67 -98 59 -146 -15 -90 -60
-130 -148 -130 -54 0 -61 3 -96 37 -33 34 -37 43 -41 100 -3 53 0 68 20 98 47
70 140 89 206 41z"/>
<path d="M220 560 c0 -118 2 -140 15 -140 12 0 15 13 15 60 l0 60 70 0 c62 0
74 3 95 25 31 30 32 73 4 109 -19 25 -25 26 -110 26 l-89 0 0 -140z m174 104
c9 -8 16 -28 16 -44 0 -41 -32 -60 -102 -60 l-58 0 0 60 0 60 64 0 c45 0 69
-5 80 -16z"/>
<path d="M479 581 c-22 -23 -29 -39 -29 -69 0 -75 61 -116 136 -92 44 15 68
63 58 116 -14 75 -109 101 -165 45z m119 -7 c34 -24 31 -95 -5 -124 -31 -24
-76 -21 -103 5 -21 22 -19 89 4 114 23 25 72 28 104 5z"/>
<path d="M994 587 c-21 -18 -27 -32 -27 -63 0 -56 17 -81 62 -95 32 -10 44 -9
72 5 18 9 34 14 37 12 10 -10 -11 -67 -28 -76 -31 -16 -78 -12 -100 10 -24 24
-30 25 -30 5 0 -28 47 -48 97 -42 72 8 83 27 83 153 0 58 -4 106 -10 109 -5 3
-10 -1 -10 -9 0 -20 -7 -20 -26 -1 -24 23 -88 19 -120 -8z m129 -29 c17 -22
18 -33 11 -60 -25 -84 -144 -70 -144 18 0 73 89 101 133 42z"/>
<path d="M1353 600 c-55 -22 -65 -116 -16 -162 44 -41 153 -21 153 29 0 18 -6
17 -34 -12 -14 -14 -36 -25 -49 -25 -31 0 -77 36 -77 61 0 17 8 19 85 19 79 0
85 1 85 21 0 11 -13 34 -29 50 -31 30 -73 37 -118 19z"/>
</g>
</svg>
