<?xml version="1.0" standalone="no"?>
<!DOCTYPE svg PUBLIC "-//W3C//DTD SVG 20010904//EN"
 "http://www.w3.org/TR/2001/REC-SVG-20010904/DTD/svg10.dtd">
<svg version="1.0" xmlns="http://www.w3.org/2000/svg"
 width="514.000000pt" height="512.000000pt" viewBox="0 0 514.000000 512.000000"
 preserveAspectRatio="xMidYMid meet">
<metadata>
Created by potrace 1.15, written by Peter Selinger 2001-2017
</metadata>
<g transform="translate(0.000000,512.000000) scale(0.100000,-0.100000)"
fill="#000000" stroke="none">
<path d="M2250 5113 c-239 -19 -462 -72 -615 -147 -145 -71 -220 -139 -272
-244 l-38 -76 0 -340 0 -341 623 -3 622 -2 0 -80 0 -79 -947 -3 -948 -3 -80
-27 c-160 -55 -286 -152 -379 -291 -142 -213 -203 -454 -213 -832 -10 -368 32
-647 132 -878 53 -125 94 -186 185 -277 65 -66 103 -94 161 -123 117 -58 179
-67 452 -67 l237 0 0 350 c0 375 5 431 54 566 72 197 217 332 426 395 74 23
84 23 835 29 856 7 809 3 983 86 122 59 213 145 265 254 73 150 71 120 75 860
3 484 0 680 -8 720 -44 205 -223 371 -500 464 -99 33 -298 72 -434 85 -100 10
-507 12 -616 4z m-273 -429 c60 -36 103 -114 103 -183 -1 -134 -134 -241 -262
-211 -178 43 -231 263 -91 379 48 40 84 51 150 47 36 -2 67 -11 100 -32z"/>
</g>
</svg>
